<?xml version="1.0" standalone="no"?>
<!DOCTYPE svg PUBLIC "-//W3C//DTD SVG 20010904//EN"
 "http://www.w3.org/TR/2001/REC-SVG-20010904/DTD/svg10.dtd">
<svg version="1.0" xmlns="http://www.w3.org/2000/svg"
 width="124.000000pt" height="103.000000pt" viewBox="0 0 124.000000 103.000000"
 preserveAspectRatio="xMidYMid meet">
<metadata>
Created by potrace 1.16, written by Peter Selinger 2001-2019
</metadata>
<g transform="translate(0.000000,103.000000) scale(0.100000,-0.100000)"
fill="#000000" stroke="none">
<path d="M0 515 l0 -515 620 0 620 0 0 515 0 515 -620 0 -620 0 0 -515z m582
168 l48 -47 0 -188 0 -188 -50 0 -50 0 0 185 0 185 -45 0 -45 0 0 -185 0 -185
-50 0 -50 0 0 185 0 185 -45 0 -45 0 0 -185 0 -185 -50 0 -50 0 0 235 0 235
192 0 192 0 48 -47z m516 0 l-3 -48 -137 -3 -138 -3 0 -44 0 -45 140 0 140 0
0 -45 0 -45 -140 0 -140 0 0 -45 0 -44 138 -3 137 -3 3 -47 3 -48 -149 0 -149
0 -47 50 -46 49 0 179 c0 98 3 182 7 185 3 4 91 7 195 7 l189 0 -3 -47z"/>
</g>
</svg>
